<?xml version="1.0" encoding="UTF-8"?>
<svg xmlns="http://www.w3.org/2000/svg" xmlns:xlink="http://www.w3.org/1999/xlink" width="144pt" height="144pt" viewBox="0 0 144 144" version="1.1">
<g id="surface3131364">
<path style=" stroke:none;fill-rule:nonzero;fill:rgb(77.647059%,15.686275%,15.686275%);fill-opacity:1;" d="M 114 126 L 30 126 C 23.371094 126 18 120.628906 18 114 L 18 30 C 18 23.371094 23.371094 18 30 18 L 114 18 C 120.628906 18 126 23.371094 126 30 L 126 114 C 126 120.628906 120.628906 126 114 126 Z M 114 126 "/>
<path style=" stroke:none;fill-rule:nonzero;fill:rgb(100%,100%,100%);fill-opacity:1;" d="M 111 69.226562 L 111 71.773438 C 110.976562 71.910156 110.945312 72.046875 110.929688 72.183594 C 110.796875 73.289062 110.710938 74.402344 110.527344 75.5 C 109.925781 79.070312 108.628906 82.390625 106.703125 85.457031 C 103.777344 90.117188 99.824219 93.667969 94.855469 96.097656 C 91.988281 97.503906 88.894531 98.40625 85.71875 98.769531 C 85.015625 98.851562 84.304688 98.921875 83.601562 99 L 56.199219 99 C 56.0625 98.976562 55.921875 98.933594 55.785156 98.925781 C 53.023438 98.753906 50.363281 98.128906 47.828125 97.027344 C 42.3125 94.636719 38.199219 90.761719 35.507812 85.425781 C 34.316406 83.074219 33.550781 80.53125 33.230469 77.917969 C 33.152344 77.28125 33.078125 76.648438 33 76.015625 L 33 73.546875 C 33.027344 73.40625 33.066406 73.273438 33.074219 73.132812 C 33.21875 70.761719 33.707031 68.460938 34.574219 66.246094 C 36.902344 60.289062 40.960938 55.871094 46.726562 53.011719 C 49.714844 51.527344 52.90625 50.746094 56.238281 50.578125 C 57.871094 50.492188 59.503906 50.582031 61.125 50.800781 C 61.273438 50.820312 61.484375 50.753906 61.585938 50.648438 C 63.921875 48.289062 66.578125 46.367188 69.574219 44.914062 C 72.480469 43.507812 75.535156 42.597656 78.757812 42.234375 C 79.515625 42.148438 80.273438 42.078125 81.03125 42 L 83.371094 42 C 83.523438 42.023438 83.675781 42.050781 83.828125 42.070312 C 84.988281 42.203125 86.152344 42.289062 87.296875 42.476562 C 90.871094 43.070312 94.203125 44.34375 97.285156 46.234375 C 102.007812 49.132812 105.609375 53.054688 108.070312 57.992188 C 109.492188 60.835938 110.40625 63.902344 110.769531 67.054688 C 110.851562 67.777344 110.921875 68.503906 111 69.226562 M 67.386719 52.765625 C 67.433594 52.828125 67.441406 52.855469 67.464844 52.867188 C 69.070312 53.648438 70.601562 54.566406 72.046875 55.609375 C 72.136719 55.675781 72.367188 55.648438 72.476562 55.582031 C 76.449219 53.089844 80.757812 52.226562 85.382812 53.039062 C 89.914062 53.835938 93.605469 56.078125 96.421875 59.664062 C 99.613281 63.71875 100.828125 68.308594 99.949219 73.410156 C 99.359375 76.828125 97.976562 79.898438 95.628906 82.46875 C 91.339844 87.15625 85.96875 89.09375 79.648438 88.273438 C 75.757812 87.769531 72.394531 86.105469 69.613281 83.320312 C 66.046875 79.75 62.453125 76.203125 58.875 72.640625 C 58.398438 72.164062 57.867188 71.785156 57.179688 71.699219 C 55.980469 71.554688 54.890625 72.148438 54.371094 73.214844 C 53.910156 74.167969 53.96875 75.242188 54.972656 76.222656 C 58.960938 80.101562 62.914062 84.019531 66.902344 87.902344 C 67.585938 88.570312 68.316406 89.1875 69.089844 89.746094 C 72 91.84375 75.285156 93 78.835938 93.46875 C 81.628906 93.835938 84.394531 93.757812 87.140625 93.144531 C 92.382812 91.976562 96.71875 89.328125 100.140625 85.238281 C 102.964844 81.859375 104.671875 77.980469 105.265625 73.621094 C 105.609375 71.132812 105.535156 68.609375 105.050781 66.148438 C 104.257812 62.121094 102.539062 58.519531 99.78125 55.453125 C 94.527344 49.605469 87.914062 46.996094 80.046875 47.578125 C 77.019531 47.800781 74.15625 48.679688 71.464844 50.078125 C 70.015625 50.824219 68.644531 51.726562 67.386719 52.765625 M 65.464844 93.585938 C 65.355469 93.484375 65.246094 93.386719 65.140625 93.285156 C 63.507812 91.757812 61.867188 90.242188 60.253906 88.699219 C 59.941406 88.398438 59.65625 88.253906 59.214844 88.261719 C 57.582031 88.300781 55.945312 88.308594 54.339844 87.949219 C 46.339844 86.15625 41.695312 77.539062 44.644531 69.957031 C 46.96875 63.976562 53.40625 60.339844 59.753906 61.460938 C 62.597656 61.964844 65.097656 63.15625 67.144531 65.253906 C 69.644531 67.808594 72.21875 70.292969 74.746094 72.824219 C 75.324219 73.402344 75.984375 73.664062 76.777344 73.550781 C 77.808594 73.402344 78.628906 72.917969 79.003906 71.917969 C 79.367188 70.933594 79.191406 70.003906 78.4375 69.246094 C 75.785156 66.585938 73.195312 63.855469 70.4375 61.308594 C 65.085938 56.363281 58.777344 54.890625 51.796875 56.992188 C 42.40625 59.820312 36.910156 69.425781 39.058594 78.902344 C 41.011719 87.535156 48.632812 93.601562 57.550781 93.605469 C 60.042969 93.609375 62.53125 93.605469 65.023438 93.605469 C 65.148438 93.605469 65.269531 93.597656 65.464844 93.585938 "/>
</g>
</svg>
