<?xml version="1.0" encoding="UTF-8"?>
<svg xmlns="http://www.w3.org/2000/svg" xmlns:xlink="http://www.w3.org/1999/xlink" width="96pt" height="96pt" viewBox="0 0 96 96" version="1.1">
<defs>
<filter id="alpha" filterUnits="objectBoundingBox" x="0%" y="0%" width="100%" height="100%">
  <feColorMatrix type="matrix" in="SourceGraphic" values="0 0 0 0 1 0 0 0 0 1 0 0 0 0 1 0 0 0 1 0"/>
</filter>
<mask id="mask0">
  <g filter="url(#alpha)">
<rect x="0" y="0" width="96" height="96" style="fill:rgb(0%,0%,0%);fill-opacity:0.0509804;stroke:none;"/>
  </g>
</mask>
<clipPath id="clip1">
  <rect width="96" height="96"/>
</clipPath>
<g id="surface6288800" clip-path="url(#clip1)">
<path style=" stroke:none;fill-rule:nonzero;fill:rgb(100%,100%,100%);fill-opacity:1;" d="M 60.019531 83.992188 L 60 72.394531 C 60 70.519531 59.558594 68.683594 58.714844 67.023438 C 69.996094 64.757812 75.488281 58.085938 75.488281 46.667969 C 75.488281 42.15625 74.15625 38.175781 71.535156 34.828125 C 71.734375 34.195312 71.882812 33.539062 71.976562 32.867188 C 72.351562 30.128906 71.929688 28.339844 71.589844 26.898438 L 71.535156 26.664062 C 71.164062 25.074219 70.71875 23.9375 70.699219 23.890625 L 70.476562 23.324219 L 70.257812 22.761719 L 69.652344 22.699219 L 69.046875 22.632812 C 69.046875 22.632812 68.648438 22.59375 68.042969 22.59375 C 67.207031 22.59375 65.964844 22.675781 64.789062 23.074219 L 64.398438 23.207031 C 62.917969 23.703125 61.519531 24.175781 59.5625 25.34375 C 58.992188 25.6875 58.367188 26.074219 57.695312 26.511719 C 54.667969 25.761719 51.410156 25.378906 48 25.378906 C 44.554688 25.378906 41.269531 25.765625 38.222656 26.523438 C 37.542969 26.082031 36.914062 25.6875 36.339844 25.34375 C 34.382812 24.175781 32.984375 23.707031 31.503906 23.207031 L 31.113281 23.074219 C 29.941406 22.675781 28.699219 22.59375 27.859375 22.59375 C 27.257812 22.59375 26.859375 22.632812 26.859375 22.632812 L 26.253906 22.699219 L 25.652344 22.761719 L 25.429688 23.320312 L 25.203125 23.886719 C 25.183594 23.941406 24.738281 25.074219 24.367188 26.671875 L 24.3125 26.898438 C 23.972656 28.339844 23.550781 30.128906 23.925781 32.867188 C 24.023438 33.558594 24.175781 34.234375 24.386719 34.886719 C 21.816406 38.21875 20.515625 42.179688 20.515625 46.667969 C 20.515625 58.058594 26.011719 64.722656 37.308594 67.007812 C 36.921875 67.785156 36.617188 68.605469 36.402344 69.457031 C 36.011719 69.589844 35.648438 69.679688 35.328125 69.730469 C 34.851562 69.800781 34.355469 69.839844 33.851562 69.839844 C 32.476562 69.839844 31.398438 69.570312 30.980469 69.320312 C 30.355469 68.949219 29.234375 67.867188 28.152344 66.285156 C 27.226562 64.933594 25.78125 63.167969 24.167969 62.429688 C 22.773438 61.792969 21.292969 61.425781 20.109375 61.425781 C 19.835938 61.425781 19.578125 61.445312 19.359375 61.480469 C 18.324219 61.644531 17.460938 62.214844 16.988281 63.042969 C 16.585938 63.757812 16.519531 64.589844 16.8125 65.324219 C 17.253906 66.421875 18.515625 67.292969 19.5 67.835938 C 19.984375 68.101562 21.03125 69.070312 21.640625 70.050781 C 22.097656 70.789062 22.308594 71.3125 22.605469 72.035156 C 22.777344 72.464844 22.96875 72.933594 23.230469 73.5 C 24.171875 75.542969 27.105469 77.347656 27.4375 77.546875 C 29.046875 78.511719 31.757812 78.820312 33.75 78.910156 L 33.996094 78.917969 C 34.476562 78.917969 35.136719 78.871094 36.007812 78.777344 L 36.007812 84.003906 C 36.011719 85.058594 34.933594 85.300781 33.507812 85.277344 L 34.601562 85.644531 C 38.789062 87.144531 43.289062 88 48 88 C 52.710938 88 57.210938 87.144531 61.40625 85.648438 L 62.8125 85.125 C 61.390625 85.074219 60.03125 84.84375 60.019531 83.992188 Z M 60.019531 83.992188 "/>
</g>
<mask id="mask1">
  <g filter="url(#alpha)">
<rect x="0" y="0" width="96" height="96" style="fill:rgb(0%,0%,0%);fill-opacity:0.0705882;stroke:none;"/>
  </g>
</mask>
<clipPath id="clip2">
  <rect width="96" height="96"/>
</clipPath>
<g id="surface6288803" clip-path="url(#clip2)">
<path style=" stroke:none;fill-rule:nonzero;fill:rgb(100%,100%,100%);fill-opacity:1;" d="M 61.5625 85.59375 C 60.75 85.6875 59 85.375 59 84.003906 L 59 72.394531 C 59 70.207031 58.34375 68.09375 57.128906 66.292969 C 68.957031 64.378906 74.484375 58.105469 74.484375 46.667969 C 74.484375 42.195312 73.113281 38.28125 70.40625 35.023438 C 70.683594 34.292969 70.875 33.523438 70.984375 32.730469 C 71.335938 30.179688 70.953125 28.558594 70.617188 27.128906 L 70.5625 26.894531 C 70.207031 25.375 69.785156 24.300781 69.769531 24.257812 L 69.546875 23.695312 L 68.941406 23.628906 C 68.941406 23.628906 68.585938 23.59375 68.042969 23.59375 C 67.28125 23.59375 66.152344 23.664062 65.109375 24.023438 L 64.71875 24.152344 C 63.289062 24.636719 61.941406 25.089844 60.074219 26.203125 C 59.410156 26.597656 58.671875 27.0625 57.875 27.589844 C 54.808594 26.789062 51.488281 26.378906 48 26.378906 C 44.476562 26.378906 41.128906 26.789062 38.042969 27.601562 C 37.234375 27.070312 36.492188 26.601562 35.824219 26.203125 C 33.960938 25.089844 32.609375 24.632812 31.183594 24.152344 L 30.789062 24.023438 C 29.746094 23.667969 28.621094 23.59375 27.859375 23.59375 C 27.316406 23.59375 26.960938 23.628906 26.960938 23.628906 L 26.355469 23.695312 L 26.128906 24.261719 C 26.113281 24.304688 25.691406 25.375 25.335938 26.898438 L 25.28125 27.128906 C 24.945312 28.558594 24.5625 30.179688 24.914062 32.730469 C 25.027344 33.542969 25.226562 34.332031 25.511719 35.078125 C 22.855469 38.316406 21.511719 42.210938 21.511719 46.667969 C 21.511719 58.074219 27.042969 64.34375 38.882812 66.28125 C 38.09375 67.460938 37.542969 68.789062 37.257812 70.207031 C 36.597656 70.46875 36 70.640625 35.476562 70.71875 C 34.949219 70.800781 34.402344 70.839844 33.847656 70.839844 C 32.46875 70.839844 31.140625 70.582031 30.46875 70.183594 C 29.589844 69.660156 28.355469 68.355469 27.324219 66.851562 C 26.625 65.832031 25.230469 64.019531 23.746094 63.34375 C 22.476562 62.761719 21.152344 62.429688 20.105469 62.429688 C 19.886719 62.429688 19.6875 62.445312 19.511719 62.472656 C 18.777344 62.589844 18.175781 62.976562 17.855469 63.539062 C 17.597656 63.988281 17.554688 64.507812 17.734375 64.957031 C 18.09375 65.851562 19.421875 66.65625 19.972656 66.960938 C 20.644531 67.328125 21.8125 68.449219 22.480469 69.527344 C 22.984375 70.335938 23.222656 70.921875 23.523438 71.660156 C 23.695312 72.078125 23.878906 72.535156 24.132812 73.085938 C 24.792969 74.523438 26.839844 76.03125 27.941406 76.691406 C 29.449219 77.597656 32.25 77.847656 33.785156 77.914062 L 34.007812 77.921875 C 34.605469 77.921875 35.609375 77.828125 36.996094 77.648438 L 36.996094 84.003906 C 36.996094 85.5625 35.015625 85.625 34.53125 85.625 C 34.46875 85.625 35.535156 85.992188 35.535156 85.992188 C 39.460938 87.28125 43.644531 88 48 88 C 52.355469 88 56.539062 87.28125 60.460938 85.992188 C 60.460938 85.992188 61.625 85.585938 61.5625 85.59375 Z M 61.5625 85.59375 "/>
</g>
</defs>
<g id="surface6288795">
<path style=" stroke:none;fill-rule:nonzero;fill:rgb(100%,100%,100%);fill-opacity:1;" d="M 48 8 C 25.90625 8 8 25.90625 8 48 C 8 65.773438 19.601562 80.820312 35.640625 86.03125 L 60.359375 86.03125 C 76.398438 80.820312 88 65.773438 88 48 C 88 25.90625 70.09375 8 48 8 Z M 48 8 "/>
<use xlink:href="#surface6288800" mask="url(#mask0)"/>
<use xlink:href="#surface6288803" mask="url(#mask1)"/>
<path style=" stroke:none;fill-rule:nonzero;fill:rgb(20%,20%,20%);fill-opacity:1;" d="M 73.488281 46.667969 C 73.488281 42.046875 71.925781 38.214844 69.253906 35.210938 C 69.542969 34.5625 69.847656 33.691406 69.996094 32.59375 C 70.339844 30.09375 69.933594 28.59375 69.589844 27.125 C 69.246094 25.65625 68.839844 24.625 68.839844 24.625 C 68.839844 24.625 66.996094 24.4375 65.433594 24.96875 C 63.871094 25.503906 62.527344 25.90625 60.589844 27.0625 C 59.683594 27.605469 58.773438 28.195312 58.050781 28.675781 C 54.964844 27.820312 51.570312 27.378906 48 27.378906 C 44.398438 27.378906 40.972656 27.820312 37.867188 28.683594 C 37.140625 28.203125 36.222656 27.605469 35.3125 27.0625 C 33.375 25.90625 32.03125 25.5 30.46875 24.96875 C 28.90625 24.4375 27.0625 24.625 27.0625 24.625 C 27.0625 24.625 26.65625 25.65625 26.3125 27.125 C 25.96875 28.59375 25.5625 30.09375 25.90625 32.59375 C 26.058594 33.714844 26.371094 34.605469 26.671875 35.257812 C 24.050781 38.242188 22.515625 42.050781 22.515625 46.664062 C 22.515625 58.632812 28.976562 64.09375 40.757812 65.535156 C 39.382812 66.988281 38.460938 68.847656 38.148438 70.917969 C 37.375 71.257812 36.484375 71.578125 35.625 71.707031 C 33.417969 72.039062 31.085938 71.707031 29.960938 71.039062 C 28.835938 70.375 27.503906 68.875 26.503906 67.414062 C 25.65625 66.183594 24.441406 64.753906 23.335938 64.246094 C 21.878906 63.582031 20.460938 63.332031 19.671875 63.457031 C 18.878906 63.582031 18.503906 64.164062 18.671875 64.582031 C 18.835938 64.996094 19.628906 65.625 20.460938 66.082031 C 21.296875 66.539062 22.589844 67.789062 23.339844 68.996094 C 24.175781 70.347656 24.339844 71.125 25.046875 72.664062 C 25.542969 73.746094 27.246094 75.101562 28.460938 75.828125 C 29.503906 76.457031 31.585938 76.8125 33.839844 76.914062 C 34.617188 76.949219 36.453125 76.722656 38.003906 76.503906 L 38.003906 84.003906 C 38.003906 85.28125 36.835938 86.253906 35.621094 86.027344 C 39.511719 87.335938 43.664062 88 48 88 C 52.332031 88 56.484375 87.335938 60.378906 86.03125 C 59.171875 86.253906 58 85.28125 58 84.003906 L 58 72.394531 C 58 69.738281 56.945312 67.335938 55.253906 65.546875 C 66.945312 64.140625 73.488281 58.808594 73.488281 46.667969 Z M 22.476562 65.453125 C 22.171875 65.296875 22.003906 65.003906 22.109375 64.796875 C 22.210938 64.59375 22.546875 64.554688 22.855469 64.710938 C 23.164062 64.871094 23.328125 65.160156 23.226562 65.367188 C 23.121094 65.574219 22.785156 65.613281 22.476562 65.453125 Z M 24.902344 66.964844 C 24.738281 67.140625 24.390625 67.085938 24.125 66.839844 C 23.855469 66.597656 23.769531 66.253906 23.933594 66.078125 C 24.09375 65.902344 24.441406 65.957031 24.710938 66.203125 C 24.976562 66.445312 25.0625 66.789062 24.902344 66.964844 Z M 26.410156 69.464844 C 26.207031 69.609375 25.859375 69.472656 25.636719 69.164062 C 25.414062 68.855469 25.402344 68.484375 25.605469 68.339844 C 25.808594 68.195312 26.15625 68.328125 26.378906 68.640625 C 26.597656 68.949219 26.613281 69.320312 26.410156 69.464844 Z M 28.574219 71.347656 C 28.4375 71.570312 28.046875 71.578125 27.703125 71.371094 C 27.359375 71.160156 27.191406 70.808594 27.328125 70.585938 C 27.464844 70.359375 27.859375 70.351562 28.203125 70.558594 C 28.546875 70.769531 28.714844 71.121094 28.574219 71.347656 Z M 30.625 73.1875 C 30.199219 73.136719 29.882812 72.871094 29.917969 72.59375 C 29.953125 72.316406 30.324219 72.136719 30.75 72.191406 C 31.175781 72.242188 31.492188 72.507812 31.457031 72.785156 C 31.421875 73.058594 31.050781 73.238281 30.625 73.1875 Z M 33.925781 73.664062 C 33.472656 73.640625 33.117188 73.378906 33.136719 73.089844 C 33.152344 72.796875 33.535156 72.578125 33.988281 72.605469 C 34.445312 72.628906 34.796875 72.890625 34.78125 73.183594 C 34.761719 73.476562 34.378906 73.691406 33.925781 73.664062 Z M 37.042969 73.355469 C 36.558594 73.355469 36.164062 73.101562 36.164062 72.792969 C 36.164062 72.480469 36.558594 72.230469 37.042969 72.230469 C 37.527344 72.230469 37.917969 72.480469 37.917969 72.792969 C 37.917969 73.101562 37.523438 73.355469 37.042969 73.355469 Z M 37.042969 73.355469 "/>
</g>
</svg>
