<?xml version="1.0" encoding="UTF-8"?>
<svg xmlns="http://www.w3.org/2000/svg" xmlns:xlink="http://www.w3.org/1999/xlink" width="180pt" height="180pt" viewBox="0 0 180 180" version="1.1">
<g id="surface3202053">
<path style=" stroke:none;fill-rule:nonzero;fill:rgb(18.431373%,80%,44.313725%);fill-opacity:1;" d="M 90 18 C 50.238281 18 18 50.238281 18 90 C 18 123.738281 41.230469 151.96875 72.550781 159.78125 C 72.214844 158.808594 72 157.679688 72 156.28125 L 72 143.976562 C 69.078125 143.976562 64.183594 143.976562 62.953125 143.976562 C 58.027344 143.976562 53.644531 141.859375 51.523438 137.921875 C 49.164062 133.546875 48.757812 126.859375 42.910156 122.765625 C 41.179688 121.402344 42.496094 119.851562 44.496094 120.058594 C 48.1875 121.105469 51.246094 123.636719 54.125 127.390625 C 56.992188 131.152344 58.34375 132.007812 63.703125 132.007812 C 66.300781 132.007812 70.1875 131.855469 73.847656 131.28125 C 75.816406 126.28125 79.21875 121.679688 83.375 119.507812 C 59.398438 117.042969 47.957031 105.113281 47.957031 88.921875 C 47.957031 81.949219 50.929688 75.203125 55.972656 69.523438 C 54.316406 63.882812 52.234375 52.378906 56.609375 48 C 67.398438 48 73.921875 54.996094 75.484375 56.886719 C 80.863281 55.042969 86.765625 54 92.96875 54 C 99.1875 54 105.113281 55.042969 110.503906 56.898438 C 112.050781 55.019531 118.578125 48 129.390625 48 C 133.78125 52.386719 131.675781 63.9375 130.003906 69.5625 C 135.019531 75.234375 137.96875 81.960938 137.96875 88.921875 C 137.96875 105.101562 126.546875 117.023438 102.605469 119.503906 C 109.195312 122.941406 114 132.601562 114 139.878906 L 114 156.28125 C 114 156.90625 113.863281 157.355469 113.789062 157.890625 C 141.847656 148.054688 162 121.414062 162 90 C 162 50.238281 129.761719 18 90 18 Z M 90 18 "/>
</g>
</svg>
