<?xml version="1.0" encoding="UTF-8"?>
<svg xmlns="http://www.w3.org/2000/svg" xmlns:xlink="http://www.w3.org/1999/xlink" width="96pt" height="96pt" viewBox="0 0 96 96" version="1.1">
<g id="surface4321579">
<path style=" stroke:none;fill-rule:nonzero;fill:rgb(100%,100%,100%);fill-opacity:1;" d="M 27.867188 0 C 12.519531 0 0 12.519531 0 27.867188 L 0 68.132812 C 0 83.480469 12.519531 96 27.867188 96 L 68.132812 96 C 83.480469 96 96 83.480469 96 68.132812 L 96 27.867188 C 96 12.519531 83.480469 0 68.132812 0 Z M 27.867188 7.382812 L 68.132812 7.382812 C 79.484375 7.382812 88.617188 16.5 88.617188 27.867188 L 88.617188 68.132812 C 88.617188 79.484375 79.5 88.617188 68.132812 88.617188 L 27.867188 88.617188 C 16.515625 88.617188 7.382812 79.5 7.382812 68.132812 L 7.382812 27.867188 C 7.382812 16.515625 16.5 7.382812 27.867188 7.382812 Z M 75.691406 14.769531 C 72.632812 14.769531 70.152344 17.25 70.152344 20.308594 C 70.152344 23.367188 72.632812 25.847656 75.691406 25.847656 C 78.75 25.847656 81.230469 23.367188 81.230469 20.308594 C 81.230469 17.25 78.75 14.769531 75.691406 14.769531 Z M 48 22.152344 C 33.765625 22.152344 22.152344 33.765625 22.152344 48 C 22.152344 62.234375 33.765625 73.847656 48 73.847656 C 62.234375 73.847656 73.847656 62.234375 73.847656 48 C 73.847656 33.765625 62.234375 22.152344 48 22.152344 Z M 48 29.539062 C 58.242188 29.539062 66.460938 37.757812 66.460938 48 C 66.460938 58.242188 58.242188 66.460938 48 66.460938 C 37.757812 66.460938 29.539062 58.242188 29.539062 48 C 29.539062 37.757812 37.757812 29.539062 48 29.539062 Z M 48 29.539062 "/>
</g>
</svg>
