<?xml version="1.0" encoding="UTF-8"?>
<svg xmlns="http://www.w3.org/2000/svg" xmlns:xlink="http://www.w3.org/1999/xlink" width="96pt" height="96pt" viewBox="0 0 96 96" version="1.1">
<defs>
<filter id="alpha" filterUnits="objectBoundingBox" x="0%" y="0%" width="100%" height="100%">
  <feColorMatrix type="matrix" in="SourceGraphic" values="0 0 0 0 1 0 0 0 0 1 0 0 0 0 1 0 0 0 1 0"/>
</filter>
<mask id="mask0">
  <g filter="url(#alpha)">
<rect x="0" y="0" width="96" height="96" style="fill:rgb(0%,0%,0%);fill-opacity:0.0509804;stroke:none;"/>
  </g>
</mask>
<clipPath id="clip1">
  <rect width="96" height="96"/>
</clipPath>
<g id="surface4322727" clip-path="url(#clip1)">
<path style=" stroke:none;fill-rule:nonzero;fill:rgb(100%,100%,100%);fill-opacity:1;" d="M 60 74 L 60 53.800781 C 60 50.425781 58.363281 48.40625 55.617188 48.40625 C 53.984375 48.40625 52.789062 49.324219 52.058594 51.132812 C 52.023438 51.261719 51.976562 51.785156 51.996094 53.363281 L 52 74 L 38 74 L 38 36 L 52 36 L 52 38.121094 C 54.042969 36.710938 56.550781 36 59.476562 36 C 68.570312 36 73.996094 42.1875 73.996094 52.546875 L 74 74 Z M 22 74 L 22 36 L 28.914062 36 C 24.90625 36 22 33.054688 22 28.996094 C 22 24.945312 24.957031 22 29.027344 22 C 33.050781 22 35.917969 24.863281 36 28.957031 C 36 33.046875 33.042969 36 28.96875 36 L 36 36 L 36 74 Z M 22 74 "/>
</g>
<mask id="mask1">
  <g filter="url(#alpha)">
<rect x="0" y="0" width="96" height="96" style="fill:rgb(0%,0%,0%);fill-opacity:0.0705882;stroke:none;"/>
  </g>
</mask>
<clipPath id="clip2">
  <rect width="96" height="96"/>
</clipPath>
<g id="surface4322730" clip-path="url(#clip2)">
<path style=" stroke:none;fill-rule:nonzero;fill:rgb(100%,100%,100%);fill-opacity:1;" d="M 61 73 L 61 53.800781 C 61 49.855469 58.9375 47.40625 55.617188 47.40625 C 53.027344 47.40625 51.746094 49.230469 51.128906 50.761719 C 50.964844 51.15625 50.988281 52.738281 50.996094 53.410156 L 51 73 L 39 73 L 39 37 L 51 37 L 51 40.277344 C 52.589844 38.628906 55.148438 37 59.476562 37 C 67.941406 37 72.996094 42.8125 72.996094 52.546875 L 73 73 Z M 23 73 L 23 37 L 35 37 L 35 73 Z M 28.914062 35 C 25.488281 35 23 32.476562 23 28.996094 C 23 25.523438 25.535156 23 29.027344 23 C 32.476562 23 34.929688 25.457031 35 28.976562 C 35 32.476562 32.464844 35 28.96875 35 Z M 28.914062 35 "/>
</g>
</defs>
<g id="surface4322722">
<path style=" stroke:none;fill-rule:nonzero;fill:rgb(100%,100%,100%);fill-opacity:1;" d="M 84 74 C 84 79.523438 79.523438 84 74 84 L 22 84 C 16.476562 84 12 79.523438 12 74 L 12 22 C 12 16.476562 16.476562 12 22 12 L 74 12 C 79.523438 12 84 16.476562 84 22 Z M 84 74 "/>
<use xlink:href="#surface4322727" mask="url(#mask0)"/>
<use xlink:href="#surface4322730" mask="url(#mask1)"/>
<path style=" stroke:none;fill-rule:nonzero;fill:rgb(0%,0%,0%);fill-opacity:1;" d="M 24 38 L 34 38 L 34 72 L 24 72 Z M 28.96875 34 L 28.914062 34 C 25.929688 34 24 31.777344 24 28.996094 C 24 26.160156 25.988281 24 29.027344 24 C 32.070312 24 33.945312 26.160156 34 28.996094 C 34 31.773438 32.070312 34 28.96875 34 Z M 72 72 L 62 72 L 62 53.800781 C 62 49.40625 59.550781 46.40625 55.617188 46.40625 C 52.613281 46.40625 50.988281 48.429688 50.203125 50.386719 C 49.914062 51.085938 50 53.023438 50 54 L 50 72 L 40 72 L 40 38 L 50 38 L 50 43.230469 C 51.441406 41 53.699219 38 59.476562 38 C 66.632812 38 71.996094 42.5 71.996094 52.546875 Z M 72 72 "/>
</g>
</svg>
